<svg width="30" height="31" viewBox="0 0 30 31" fill="none" xmlns="http://www.w3.org/2000/svg">
<path d="M0 0.5H30V30.5H0V0.5Z" fill="white" fill-opacity="0.01"/>
<path d="M14.9999 5.5L23.6602 10.5V20.5L14.9999 25.5L6.33969 20.5V10.5L14.9999 5.5Z" stroke="black" stroke-width="2" stroke-linecap="round" stroke-linejoin="round"/>
<path d="M15 28C16.3807 28 17.5 26.8807 17.5 25.5C17.5 24.1193 16.3807 23 15 23C13.6192 23 12.5 24.1193 12.5 25.5C12.5 26.8807 13.6192 28 15 28Z" fill="#01A7CC" stroke="black" stroke-width="2" stroke-linecap="round" stroke-linejoin="round"/>
<path d="M15 8C16.3807 8 17.5 6.88071 17.5 5.5C17.5 4.11929 16.3807 3 15 3C13.6192 3 12.5 4.11929 12.5 5.5C12.5 6.88071 13.6192 8 15 8Z" fill="#01A7CC" stroke="black" stroke-width="2" stroke-linecap="round" stroke-linejoin="round"/>
<path d="M15 18C16.3807 18 17.5 16.8807 17.5 15.5C17.5 14.1193 16.3807 13 15 13C13.6192 13 12.5 14.1193 12.5 15.5C12.5 16.8807 13.6192 18 15 18Z" fill="#01A7CC" stroke="black" stroke-width="2" stroke-linecap="round" stroke-linejoin="round"/>
<path d="M23.75 13C25.1307 13 26.25 11.8807 26.25 10.5C26.25 9.11929 25.1307 8 23.75 8C22.3693 8 21.25 9.11929 21.25 10.5C21.25 11.8807 22.3693 13 23.75 13Z" fill="#01A7CC" stroke="black" stroke-width="2" stroke-linecap="round" stroke-linejoin="round"/>
<path d="M23.75 23C25.1307 23 26.25 21.8807 26.25 20.5C26.25 19.1193 25.1307 18 23.75 18C22.3693 18 21.25 19.1193 21.25 20.5C21.25 21.8807 22.3693 23 23.75 23Z" fill="#01A7CC" stroke="black" stroke-width="2" stroke-linecap="round" stroke-linejoin="round"/>
<path d="M6.25 13C7.63071 13 8.75 11.8807 8.75 10.5C8.75 9.11929 7.63071 8 6.25 8C4.86929 8 3.75 9.11929 3.75 10.5C3.75 11.8807 4.86929 13 6.25 13Z" fill="#01A7CC" stroke="black" stroke-width="2" stroke-linecap="round" stroke-linejoin="round"/>
<path d="M6.25 23C7.63071 23 8.75 21.8807 8.75 20.5C8.75 19.1193 7.63071 18 6.25 18C4.86929 18 3.75 19.1193 3.75 20.5C3.75 21.8807 4.86929 23 6.25 23Z" fill="#01A7CC" stroke="black" stroke-width="2" stroke-linecap="round" stroke-linejoin="round"/>
</svg>
