<svg width="15" height="19" viewBox="0 0 15 19" fill="none" xmlns="http://www.w3.org/2000/svg">
<path d="M0.87146 0.923096H14.7446V18.077H0.87146V0.923096Z" fill="white" fill-opacity="0.01"/>
<path fill-rule="evenodd" clip-rule="evenodd" d="M6.06871 5.20016L10.058 2.35229L11.3911 5.20731L6.06871 5.20016Z" stroke="black" stroke-linecap="round" stroke-linejoin="round"/>
<path d="M2.0276 5.92617C2.0276 5.53142 2.2864 5.21143 2.60565 5.21143H13.0105C13.3298 5.21143 13.5886 5.53142 13.5886 5.92617V15.9326C13.5886 16.3274 13.3298 16.6474 13.0105 16.6474H2.60565C2.2864 16.6474 2.0276 16.3274 2.0276 15.9326V5.92617Z" fill="#01A7CC" stroke="black" stroke-linejoin="round"/>
<path d="M11.0595 12.7163H13.5885V9.14258H11.0595C10.2215 9.14258 9.54216 9.94259 9.54216 10.9294C9.54216 11.9163 10.2215 12.7163 11.0595 12.7163Z" fill="#43CCF8" stroke="white" stroke-linejoin="round"/>
<path d="M13.5885 6.81934V15.3963" stroke="black" stroke-linecap="round"/>
</svg>
