<svg width="30" height="31" viewBox="0 0 30 31" fill="none" xmlns="http://www.w3.org/2000/svg">
<path d="M0 0.5H30V30.5H0V0.5Z" fill="white" fill-opacity="0.01"/>
<path d="M2.50006 7.99976H27.5001V12.9998L26.626 13.5242C25.2405 14.3555 23.5096 14.3555 22.1241 13.5242L21.2501 12.9998L20.376 13.5242C18.9905 14.3555 17.2596 14.3555 15.8741 13.5242L15.0001 12.9998L14.126 13.5242C12.7405 14.3555 11.0096 14.3555 9.62412 13.5242L8.75006 12.9998L7.876 13.5242C6.4905 14.3555 4.75963 14.3555 3.37414 13.5242L2.50006 12.9998V7.99976Z" fill="#01A7CC" stroke="black" stroke-width="2" stroke-linecap="round" stroke-linejoin="round"/>
<path d="M5 14.5553V27.9998H25V14.2498" stroke="black" stroke-width="2" stroke-linecap="round" stroke-linejoin="round"/>
<path d="M5 7.88839V2.99951H25V7.99951" stroke="black" stroke-width="2" stroke-linecap="round" stroke-linejoin="round"/>
<path d="M11.875 20.4998H18.125V27.9998H11.875V20.4998Z" fill="#01A7CC" stroke="black" stroke-width="2" stroke-linecap="round" stroke-linejoin="round"/>
</svg>
